#Comment line ignore any data following # character 
#Hierarchical Translation and Rotation (.htr) file 
[Header]	
#Header keywords are followed by a single value 
FileType HTR		#Single word string
DataType HTRS		#Translation followed by rotation and scale data
FileVersion 1		#integer
NumSegments 84		#integer
NumFrames 2		#integer
DataFrameRate 30		#integer, data frame rate in this file
EulerRotationOrder ZYX
CalibrationUnits mm
RotationUnits Degrees
GlobalAxisofGravity Y
BoneLengthAxis Y
ScaleFactor 1.00
[SegmentNames&Hierarchy]
#CHILD	PARENT
MASTER GLOBAL
root MASTER
chest root
L_mid_tent01 root
R_mid_tent01 root
spine01 root
Bip01_Neck chest
L_humerus chest
R_humerus chest
weapon_bone chest
Bip01_Head Bip01_Neck
eye_left_bone Bip01_Head
eye_right_bone Bip01_Head
L_forearm L_humerus
L_front_hand L_forearm
L_weapon_bone L_forearm
L_front_hand01_01 L_front_hand
L_front_hand02_01 L_front_hand
L_front_hand03_01 L_front_hand
L_front_hand01_02 L_front_hand01_01
L_front_hand02_02 L_front_hand02_01
L_front_hand03_02 L_front_hand03_01
R_forearm R_humerus
R_front_hand R_forearm
R_weapon_bone R_forearm
R_front_hand01_01 R_front_hand
R_front_hand02_01 R_front_hand
R_front_hand03_01 R_front_hand
R_front_hand01_02 R_front_hand01_01
R_front_hand02_02 R_front_hand02_01
R_front_hand03_02 R_front_hand03_01
null_rope01_connect L_mid_tent01
Rope1_Seg01 null_rope01_connect
Rope1_Seg02 Rope1_Seg01
Rope1_Seg03 Rope1_Seg02
Rope1_Seg04 Rope1_Seg03
Rope1_Seg05 Rope1_Seg04
Rope1_Seg06 Rope1_Seg05
Rope1_Seg07 Rope1_Seg06
Rope1_Seg09 Rope1_Seg07
L_mid_hand01 Rope1_Seg09
L_mid_hand02 Rope1_Seg09
L_mid_hand03 Rope1_Seg09
null_rope02_connect R_mid_tent01
Rope2_Seg01 null_rope02_connect
Rope2_Seg02 Rope2_Seg01
Rope2_Seg03 Rope2_Seg02
Rope2_Seg04 Rope2_Seg03
Rope2_Seg05 Rope2_Seg04
Rope2_Seg06 Rope2_Seg05
Rope2_Seg07 Rope2_Seg06
Rope2_Seg09 Rope2_Seg07
R_mid_hand01 Rope2_Seg09
R_mid_hand02 Rope2_Seg09
R_mid_hand03 Rope2_Seg09
spine02 spine01
spine03 spine02
pelvis spine03
null_rope03_connect pelvis
null_rope04_connect pelvis
Rope3_Seg01 null_rope03_connect
Rope3_Seg02 Rope3_Seg01
Rope3_Seg03 Rope3_Seg02
Rope3_Seg04 Rope3_Seg03
Rope3_Seg05 Rope3_Seg04
Rope3_Seg06 Rope3_Seg05
Rope3_Seg07 Rope3_Seg06
Rope3_Seg08 Rope3_Seg07
Rope3_Seg09 Rope3_Seg08
R_rear_hand01 Rope3_Seg09
R_rear_hand02 Rope3_Seg09
R_rear_hand03 Rope3_Seg09
Rope4_Seg01 null_rope04_connect
Rope4_Seg02 Rope4_Seg01
Rope4_Seg03 Rope4_Seg02
Rope4_Seg04 Rope4_Seg03
Rope4_Seg05 Rope4_Seg04
Rope4_Seg06 Rope4_Seg05
Rope4_Seg07 Rope4_Seg06
Rope4_Seg08 Rope4_Seg07
Rope4_Seg09 Rope4_Seg08
L_rear_hand01 Rope4_Seg09
L_rear_hand02 Rope4_Seg09
L_rear_hand03 Rope4_Seg09
[BasePosition]
#SegmentName Tx, Ty, Tz, Rx, Ry, Rz, BoneLength
MASTER 0.000000 0.000000 0.000000 -90.000000 0.000000 0.000000 10.000000 
root 0.000000 0.000000 0.000000 0.000000 0.000000 0.000000 10.000000 
chest 0.000000 0.000000 0.000000 0.000000 0.000000 0.000000 10.000000 
L_mid_tent01 0.000000 0.000000 0.000000 0.000000 0.000000 0.000000 10.000000 
R_mid_tent01 0.000000 0.000000 0.000000 0.000000 0.000000 0.000000 10.000000 
spine01 0.000000 0.000000 0.000000 0.000000 0.000000 0.000000 10.000000 
Bip01_Neck 0.000000 0.000000 0.000000 0.000000 0.000000 0.000000 10.000000 
L_humerus 0.000000 0.000000 0.000000 0.000000 0.000000 0.000000 10.000000 
R_humerus 0.000000 0.000000 0.000000 0.000000 0.000000 0.000000 10.000000 
weapon_bone 0.000000 0.000000 0.000000 0.000000 0.000000 0.000000 10.000000 
Bip01_Head 0.000000 0.000000 0.000000 0.000000 0.000000 0.000000 10.000000 
eye_left_bone 0.000000 0.000000 0.000000 0.000000 0.000000 0.000000 10.000000 
eye_right_bone 0.000000 0.000000 0.000000 0.000000 0.000000 0.000000 10.000000 
L_forearm 0.000000 0.000000 0.000000 0.000000 0.000000 0.000000 10.000000 
L_front_hand 0.000000 0.000000 0.000000 0.000000 0.000000 0.000000 10.000000 
L_weapon_bone 0.000000 0.000000 0.000000 0.000000 0.000000 0.000000 10.000000 
L_front_hand01_01 0.000000 0.000000 0.000000 0.000000 0.000000 0.000000 10.000000 
L_front_hand02_01 0.000000 0.000000 0.000000 0.000000 0.000000 0.000000 10.000000 
L_front_hand03_01 0.000000 0.000000 0.000000 0.000000 0.000000 0.000000 10.000000 
L_front_hand01_02 0.000000 0.000000 0.000000 0.000000 0.000000 0.000000 10.000000 
L_front_hand02_02 0.000000 0.000000 0.000000 0.000000 0.000000 0.000000 10.000000 
L_front_hand03_02 0.000000 0.000000 0.000000 0.000000 0.000000 0.000000 10.000000 
R_forearm 0.000000 0.000000 0.000000 0.000000 0.000000 0.000000 10.000000 
R_front_hand 0.000000 0.000000 0.000000 0.000000 0.000000 0.000000 10.000000 
R_weapon_bone 0.000000 0.000000 0.000000 0.000000 0.000000 0.000000 10.000000 
R_front_hand01_01 0.000000 0.000000 0.000000 0.000000 0.000000 0.000000 10.000000 
R_front_hand02_01 0.000000 0.000000 0.000000 0.000000 0.000000 0.000000 10.000000 
R_front_hand03_01 0.000000 0.000000 0.000000 0.000000 0.000000 0.000000 10.000000 
R_front_hand01_02 0.000000 0.000000 0.000000 0.000000 0.000000 0.000000 10.000000 
R_front_hand02_02 0.000000 0.000000 0.000000 0.000000 0.000000 0.000000 10.000000 
R_front_hand03_02 0.000000 0.000000 0.000000 0.000000 0.000000 0.000000 10.000000 
null_rope01_connect 0.000000 0.000000 0.000000 0.000000 0.000000 0.000000 10.000000 
Rope1_Seg01 0.000000 0.000000 0.000000 0.000000 0.000000 0.000000 10.000000 
Rope1_Seg02 0.000000 0.000000 0.000000 0.000000 0.000000 0.000000 10.000000 
Rope1_Seg03 0.000000 0.000000 0.000000 0.000000 0.000000 0.000000 10.000000 
Rope1_Seg04 0.000000 0.000000 0.000000 0.000000 0.000000 0.000000 10.000000 
Rope1_Seg05 0.000000 0.000000 0.000000 0.000000 0.000000 0.000000 10.000000 
Rope1_Seg06 0.000000 0.000000 0.000000 0.000000 0.000000 0.000000 10.000000 
Rope1_Seg07 0.000000 0.000000 0.000000 0.000000 0.000000 0.000000 10.000000 
Rope1_Seg09 0.000000 0.000000 0.000000 0.000000 0.000000 0.000000 10.000000 
L_mid_hand01 0.000000 0.000000 0.000000 0.000000 0.000000 0.000000 10.000000 
L_mid_hand02 0.000000 0.000000 0.000000 0.000000 0.000000 0.000000 10.000000 
L_mid_hand03 0.000000 0.000000 0.000000 0.000000 0.000000 0.000000 10.000000 
null_rope02_connect 0.000000 0.000000 0.000000 0.000000 0.000000 0.000000 10.000000 
Rope2_Seg01 0.000000 0.000000 0.000000 0.000000 0.000000 0.000000 10.000000 
Rope2_Seg02 0.000000 0.000000 0.000000 0.000000 0.000000 0.000000 10.000000 
Rope2_Seg03 0.000000 0.000000 0.000000 0.000000 0.000000 0.000000 10.000000 
Rope2_Seg04 0.000000 0.000000 0.000000 0.000000 0.000000 0.000000 10.000000 
Rope2_Seg05 0.000000 0.000000 0.000000 0.000000 0.000000 0.000000 10.000000 
Rope2_Seg06 0.000000 0.000000 0.000000 0.000000 0.000000 0.000000 10.000000 
Rope2_Seg07 0.000000 0.000000 0.000000 0.000000 0.000000 0.000000 10.000000 
Rope2_Seg09 0.000000 0.000000 0.000000 0.000000 0.000000 0.000000 10.000000 
R_mid_hand01 0.000000 0.000000 0.000000 0.000000 0.000000 0.000000 10.000000 
R_mid_hand02 0.000000 0.000000 0.000000 0.000000 0.000000 0.000000 10.000000 
R_mid_hand03 0.000000 0.000000 0.000000 0.000000 0.000000 0.000000 10.000000 
spine02 0.000000 0.000000 0.000000 0.000000 0.000000 0.000000 10.000000 
spine03 0.000000 0.000000 0.000000 0.000000 0.000000 0.000000 10.000000 
pelvis 0.000000 0.000000 0.000000 0.000000 0.000000 0.000000 10.000000 
null_rope03_connect 0.000000 0.000000 0.000000 0.000000 0.000000 0.000000 10.000000 
null_rope04_connect 0.000000 0.000000 0.000000 0.000000 0.000000 0.000000 10.000000 
Rope3_Seg01 0.000000 0.000000 0.000000 0.000000 0.000000 0.000000 10.000000 
Rope3_Seg02 0.000000 0.000000 0.000000 0.000000 0.000000 0.000000 10.000000 
Rope3_Seg03 0.000000 0.000000 0.000000 0.000000 0.000000 0.000000 10.000000 
Rope3_Seg04 0.000000 0.000000 0.000000 0.000000 0.000000 0.000000 10.000000 
Rope3_Seg05 0.000000 0.000000 0.000000 0.000000 0.000000 0.000000 10.000000 
Rope3_Seg06 0.000000 0.000000 0.000000 0.000000 0.000000 0.000000 10.000000 
Rope3_Seg07 0.000000 0.000000 0.000000 0.000000 0.000000 0.000000 10.000000 
Rope3_Seg08 0.000000 0.000000 0.000000 0.000000 0.000000 0.000000 10.000000 
Rope3_Seg09 0.000000 0.000000 0.000000 0.000000 0.000000 0.000000 10.000000 
R_rear_hand01 0.000000 0.000000 0.000000 0.000000 0.000000 0.000000 10.000000 
R_rear_hand02 0.000000 0.000000 0.000000 0.000000 0.000000 0.000000 10.000000 
R_rear_hand03 0.000000 0.000000 0.000000 0.000000 0.000000 0.000000 10.000000 
Rope4_Seg01 0.000000 0.000000 0.000000 0.000000 0.000000 0.000000 10.000000 
Rope4_Seg02 0.000000 0.000000 0.000000 0.000000 0.000000 0.000000 10.000000 
Rope4_Seg03 0.000000 0.000000 0.000000 0.000000 0.000000 0.000000 10.000000 
Rope4_Seg04 0.000000 0.000000 0.000000 0.000000 0.000000 0.000000 10.000000 
Rope4_Seg05 0.000000 0.000000 0.000000 0.000000 0.000000 0.000000 10.000000 
Rope4_Seg06 0.000000 0.000000 0.000000 0.000000 0.000000 0.000000 10.000000 
Rope4_Seg07 0.000000 0.000000 0.000000 0.000000 0.000000 0.000000 10.000000 
Rope4_Seg08 0.000000 0.000000 0.000000 0.000000 0.000000 0.000000 10.000000 
Rope4_Seg09 0.000000 0.000000 0.000000 0.000000 0.000000 0.000000 10.000000 
L_rear_hand01 0.000000 0.000000 0.000000 0.000000 0.000000 0.000000 10.000000 
L_rear_hand02 0.000000 0.000000 0.000000 0.000000 0.000000 0.000000 10.000000 
L_rear_hand03 0.000000 0.000000 0.000000 0.000000 0.000000 0.000000 10.000000 
#Beginning of Data. Separated by tabs
#Fr	Tx	Ty	Tz	Rx	Ry	Rz	SF
[MASTER]
41 -0.001779 11933.748047 -56.904621 0.001660 0.001660 0.001660 11933.883789
42 -0.001794 11967.544922 -28.836967 0.001660 0.001660 0.001660 11967.579102
[root]
41 -16.502306 9.364014 1448.320068 -91.728889 -11.584497 -89.471619 1448.444336
42 -16.502304 9.364014 1448.320068 -91.728889 -11.584497 -89.471619 1448.444336
[chest]
41 -84.512650 -34.090519 0.000000 -2.170494 -0.006436 168.239609 91.129311
42 -84.512650 -34.090519 0.000000 -2.170494 -0.006436 168.239609 91.129311
[L_mid_tent01]
41 27.299770 22.179543 -249.918701 -20.661392 12.026043 12.983022 252.381775
42 27.299788 22.179554 -249.918701 -20.661392 12.026043 12.983022 252.381790
[R_mid_tent01]
41 23.228794 24.509907 226.238495 -164.021194 -17.717337 23.085018 228.744751
42 23.228794 24.509907 226.238495 -164.021194 -17.717337 23.085018 228.744751
[spine01]
41 -0.361383 -0.195265 0.000000 0.001947 0.001312 22.051847 0.410763
42 -0.361383 -0.195265 0.000000 0.001947 0.001312 22.051847 0.410763
[Bip01_Neck]
41 165.484543 71.581718 0.000119 176.643677 -1.657967 43.431911 180.302734
42 165.484543 71.581718 0.000119 176.643677 -1.657967 43.431911 180.302734
[L_humerus]
41 -13.983130 -135.272980 -120.471481 -5.482599 68.860504 84.568382 181.680161
42 -13.983130 -135.272980 -120.471481 -5.480129 68.873367 84.573456 181.680161
[R_humerus]
41 -13.983309 -135.273102 125.287651 27.897165 -69.888802 67.752319 184.909012
42 -13.983309 -135.273102 125.287651 27.897165 -69.888802 67.752319 184.909012
[weapon_bone]
41 235.964890 -300.705902 0.000000 0.000000 -89.951546 -128.212341 382.234833
42 235.964890 -300.705902 0.000000 0.000000 -89.951546 -128.212341 382.234833
[Bip01_Head]
41 213.443588 185.714722 11.776924 4.962490 2.797846 -43.898743 283.172760
42 213.442978 185.715042 11.776944 4.962490 2.797846 -43.898743 283.172516
[eye_left_bone]
41 -24.626970 125.451866 -64.772606 0.000000 -90.000000 -99.840431 143.318359
42 -24.626970 125.451866 -64.772606 0.000000 -90.000000 -99.840431 143.318359
[eye_right_bone]
41 -24.626970 125.451866 64.327362 0.000000 -89.965736 80.156380 143.117676
42 -24.626970 125.451866 64.327362 0.000000 -89.965736 80.156380 143.117676
[L_forearm]
41 322.776093 0.000000 -0.000119 0.000396 -0.002314 -109.424011 322.776093
42 322.776093 0.000000 -0.000119 0.000396 -0.002314 -109.421989 322.776093
[L_front_hand]
41 241.149185 -0.042021 -3.300071 -178.667953 -1.835447 -27.422350 241.171753
42 241.149185 -0.042021 -3.300071 -178.667953 -1.835447 -27.422350 241.171753
[L_weapon_bone]
41 156.183838 0.000000 0.000000 0.000014 0.000007 0.000001 156.183838
42 156.183838 0.000000 0.000000 0.000014 0.000007 0.000001 156.183838
[L_front_hand01_01]
41 86.095154 20.947098 -0.655860 -0.366594 -0.477154 75.385574 88.609184
42 86.095154 20.947098 -0.655860 -0.366594 -0.477154 75.385574 88.609184
[L_front_hand02_01]
41 86.935165 -11.437475 24.513514 154.399796 -59.883835 -61.369587 91.046425
42 86.935165 -11.437475 24.513514 154.399796 -59.883835 -61.369587 91.046425
[L_front_hand03_01]
41 86.637497 -14.123976 -20.424902 -153.913849 58.118122 -62.702866 90.126129
42 86.637497 -14.123976 -20.424902 -153.913849 58.118122 -62.702866 90.126129
[L_front_hand01_02]
41 71.020905 -0.000179 0.000030 0.000334 -0.002323 -106.379684 71.020905
42 71.020905 -0.000179 0.000030 0.000334 -0.002323 -106.379684 71.020905
[L_front_hand02_02]
41 71.020927 -0.000119 0.000060 0.000334 -0.002323 -106.379684 71.020927
42 71.020927 -0.000119 0.000060 0.000334 -0.002323 -106.379684 71.020927
[L_front_hand03_02]
41 71.020905 -0.000060 0.000060 0.000334 -0.002323 -106.379684 71.020905
42 71.020905 -0.000060 0.000060 0.000334 -0.002323 -106.379684 71.020905
[R_forearm]
41 322.776428 -0.000060 0.000030 0.202100 0.065165 -108.066887 322.776428
42 322.776428 -0.000060 0.000030 0.202102 0.065161 -108.064842 322.776428
[R_front_hand]
41 238.847015 -0.006795 2.210259 -2.635298 -10.645461 -26.312506 238.857239
42 238.847015 -0.006795 2.210259 -2.635298 -10.645461 -26.312506 238.857239
[R_weapon_bone]
41 155.664093 0.002503 -0.000030 0.003487 0.001180 -90.988930 155.664078
42 155.664093 0.002503 -0.000030 0.003487 0.001180 -90.988930 155.664078
[R_front_hand01_01]
41 87.624611 14.231146 22.918642 -154.633499 -59.950619 61.746044 91.683487
42 87.624611 14.231146 22.918642 -154.633499 -59.950619 61.746044 91.683487
[R_front_hand02_01]
41 89.356956 14.367283 -19.491137 154.602661 58.302849 63.744381 92.579636
42 89.356956 14.367283 -19.491137 154.602661 58.302849 63.744389 92.579636
[R_front_hand03_01]
41 87.286232 -22.307278 -0.143439 0.162155 -0.423168 -75.767921 90.091743
42 87.286232 -22.307278 -0.143439 0.162155 -0.423168 -75.767921 90.091743
[R_front_hand01_02]
41 71.020905 0.000060 0.000119 0.002323 -0.000334 106.381714 71.020905
42 71.020905 0.000060 0.000119 0.002323 -0.000334 106.381714 71.020905
[R_front_hand02_02]
41 71.020844 -0.000030 -0.000119 0.002323 -0.000334 106.381714 71.020836
42 71.020844 -0.000030 -0.000119 0.002323 -0.000334 106.381714 71.020836
[R_front_hand03_02]
41 71.020905 0.000000 0.000030 0.002323 -0.000334 106.381714 71.020905
42 71.020905 0.000000 0.000030 0.002323 -0.000334 106.381714 71.020905
[null_rope01_connect]
41 328.732483 0.000000 -0.000238 -154.483337 -64.791321 -118.914307 328.732483
42 328.732483 0.000000 -0.000238 -154.483337 -64.791321 -118.914307 328.732483
[Rope1_Seg01]
41 -0.000002 -0.000004 0.000007 70.439285 7.174819 -127.751068 0.000008
42 -0.000001 -0.000002 0.000004 60.997524 4.912920 -124.841652 0.000004
[Rope1_Seg02]
41 139.999863 -0.000179 0.000000 -19.616514 6.197505 2.141417 139.999863
42 139.999863 -0.000179 0.000000 -17.048866 5.545534 2.700099 139.999863
[Rope1_Seg03]
41 139.999924 0.000060 -0.000060 -22.685034 5.997767 3.915737 139.999924
42 139.999924 0.000060 -0.000060 -18.448061 5.254104 4.024503 139.999924
[Rope1_Seg04]
41 139.999924 -0.000060 -0.000119 -20.823679 4.338698 7.276997 139.999924
42 139.999924 -0.000060 -0.000119 -17.792097 4.165394 6.602459 139.999924
[Rope1_Seg05]
41 139.999832 0.000119 -0.000060 -2.521341 -3.473144 5.752165 139.999832
42 139.999832 0.000119 -0.000060 -2.752759 -3.054391 5.575370 139.999832
[Rope1_Seg06]
41 139.999954 0.000119 -0.000060 -0.359935 -2.018675 2.550692 139.999954
42 139.999954 0.000119 -0.000060 -0.246424 -1.947301 2.370399 139.999954
[Rope1_Seg07]
41 139.999985 0.000060 0.000000 -0.649951 -0.928680 1.668814 139.999985
42 139.999985 0.000060 0.000000 -0.617725 -0.821033 1.534406 139.999985
[Rope1_Seg09]
41 121.602913 0.000119 -0.000089 -89.793175 -1.359789 0.847147 121.602913
42 121.602913 0.000119 -0.000089 -89.793175 -1.359789 0.847147 121.602913
[L_mid_hand01]
41 103.859421 1.038730 8.195221 130.544373 -67.584534 -38.866943 104.187431
42 103.859421 1.038730 8.195221 130.544373 -67.584534 -38.866943 104.187431
[L_mid_hand02]
41 105.572853 -4.139662 -10.864139 -168.923172 43.409309 -73.498886 106.211075
42 105.572853 -4.139662 -10.864139 -168.923172 43.409309 -73.498886 106.211075
[L_mid_hand03]
41 104.641464 17.579376 -3.913581 -6.012627 17.808174 74.893669 106.179977
42 104.641464 17.579376 -3.913581 -6.012627 17.808174 74.893669 106.179977
[null_rope02_connect]
41 328.732849 0.000179 -0.000119 -142.047699 67.567146 -37.808430 328.732849
42 328.732849 0.000179 -0.000119 -142.047699 67.567146 -37.808430 328.732849
[Rope2_Seg01]
41 0.000074 0.000007 0.000000 -18.302183 14.932256 -38.755032 0.000075
42 0.000075 0.000004 0.000000 11.208365 14.033292 -41.396187 0.000075
[Rope2_Seg02]
41 139.999741 -0.000060 -0.000119 84.499428 -2.225452 -14.646072 139.999756
42 139.999741 -0.000060 -0.000119 58.495449 -9.431255 -11.403705 139.999756
[Rope2_Seg03]
41 140.000107 0.000030 0.000000 3.468865 -11.314685 3.198694 140.000107
42 140.000107 0.000030 0.000000 0.409511 -10.356516 4.271085 140.000107
[Rope2_Seg04]
41 139.999802 0.000000 -0.000060 7.909209 -10.850041 -0.964767 139.999802
42 139.999802 0.000000 -0.000060 7.250461 -10.519157 -0.945342 139.999802
[Rope2_Seg05]
41 139.999985 -0.000060 0.000119 9.751496 -9.411036 -4.877680 139.999985
42 139.999985 -0.000060 0.000119 9.489683 -9.409342 -5.079275 139.999985
[Rope2_Seg06]
41 139.999893 -0.000030 -0.000119 3.180493 -5.193819 -1.306533 139.999893
42 139.999893 -0.000030 -0.000119 3.085167 -5.077806 -1.422807 139.999893
[Rope2_Seg07]
41 139.999893 0.000060 -0.000060 1.363037 -3.119975 -0.391713 139.999893
42 139.999893 0.000060 -0.000060 1.304831 -3.000719 -0.453075 139.999893
[Rope2_Seg09]
41 121.338966 0.000089 -0.000060 33.793236 -1.359788 -0.847141 121.338966
42 121.338966 0.000089 -0.000060 33.793236 -1.359788 -0.847141 121.338966
[R_mid_hand01]
41 104.680779 11.144459 -10.335981 -16.212063 45.237247 70.462852 105.778534
42 104.680779 11.144459 -10.335981 -16.212063 45.237247 70.462852 105.778534
[R_mid_hand02]
41 104.070427 2.443552 8.231699 49.067368 -67.749771 39.286453 104.424065
42 104.070427 2.443552 8.231699 49.067387 -67.749794 39.286469 104.424065
[R_mid_hand03]
41 106.028137 -11.221827 -5.996406 -177.101105 15.551026 -76.585571 106.788818
42 106.028137 -11.221827 -5.996406 -177.101105 15.551026 -76.585571 106.788818
[spine02]
41 129.756927 0.001550 0.000119 0.360061 -4.044797 -12.915058 129.756927
42 129.756927 0.001550 0.000119 0.360061 -4.044797 -12.915058 129.756927
[spine03]
41 78.614479 0.081627 -4.898988 1.896495 3.831288 16.473045 78.767021
42 78.614494 0.081631 -4.898987 1.896495 3.831288 16.473045 78.767036
[pelvis]
41 169.435242 0.051022 0.000000 -0.060481 -0.180220 14.097895 169.435257
42 169.435242 0.051022 0.000000 -0.060473 -0.180223 14.092912 169.435257
[null_rope03_connect]
41 -1.257226 -2.466202 137.391083 156.329987 -89.381348 -94.430771 137.418976
42 -1.257226 -2.466202 137.391083 156.329987 -89.381348 -94.430771 137.418976
[null_rope04_connect]
41 -1.259640 -2.480268 -137.844437 156.329987 -89.381348 -94.430771 137.872513
42 -1.259640 -2.480268 -137.844437 156.329987 -89.381348 -94.430771 137.872513
[Rope3_Seg01]
41 -0.000029 0.000000 -0.000145 -133.890030 25.292099 -82.232147 0.000148
42 -0.000029 0.000000 -0.000149 -133.919052 23.188711 -83.397499 0.000152
[Rope3_Seg02]
41 139.999924 -0.000119 0.000060 0.009906 -2.328185 -2.353341 139.999924
42 139.999924 -0.000119 0.000060 0.082339 -1.723095 -2.403631 139.999924
[Rope3_Seg03]
41 139.999924 -0.000119 0.000119 0.080879 -3.529268 -3.534286 139.999924
42 139.999924 -0.000119 0.000119 0.129872 -2.285465 -3.449278 139.999924
[Rope3_Seg04]
41 139.999924 0.000119 0.000000 0.136406 -4.062238 -4.076915 139.999924
42 139.999924 0.000119 0.000000 0.114247 -2.988640 -4.692741 139.999924
[Rope3_Seg05]
41 139.999924 -0.000238 0.000060 0.439265 5.671960 5.526975 139.999924
42 139.999924 -0.000238 0.000060 0.239732 2.644217 5.589631 139.999924
[Rope3_Seg06]
41 139.999893 -0.000119 -0.000060 0.802875 4.693027 4.560055 139.999893
42 139.999893 -0.000119 -0.000060 0.473837 3.235065 6.361259 139.999893
[Rope3_Seg07]
41 139.999771 0.000060 -0.000119 0.699941 2.210040 2.087967 139.999771
42 139.999771 0.000060 -0.000119 0.437396 1.405713 2.851331 139.999771
[Rope3_Seg08]
41 139.999985 -0.000060 0.000000 0.665508 1.403787 1.295853 139.999985
42 139.999985 -0.000060 0.000000 0.471099 0.909293 1.810728 139.999985
[Rope3_Seg09]
41 90.185997 -0.000179 -0.000060 89.793228 -1.359877 -0.847183 90.185997
42 90.185997 -0.000179 -0.000060 89.793228 -1.359877 -0.847183 90.185997
[R_rear_hand01]
41 103.366196 -6.073594 -10.757982 -177.714203 24.565960 -73.910950 104.101845
42 103.366196 -6.073594 -10.757982 -177.714203 24.565960 -73.910950 104.101845
[R_rear_hand02]
41 100.509819 12.039542 -7.992327 -12.874829 36.868488 72.167213 101.543350
42 100.509819 12.039542 -7.992327 -12.874829 36.868488 72.167213 101.543350
[R_rear_hand03]
41 101.539970 5.215704 5.435467 71.484581 -71.816628 21.513813 101.819031
42 101.539970 5.215704 5.435467 71.484581 -71.816628 21.513813 101.819031
[Rope4_Seg01]
41 0.000010 0.000038 -0.000114 46.142235 32.194405 -112.423958 0.000121
42 0.000010 0.000038 -0.000114 44.953568 29.636202 -114.801094 0.000121
[Rope4_Seg02]
41 139.999985 0.000060 0.000119 0.026718 1.599064 3.212546 139.999985
42 139.999985 0.000060 0.000119 0.155682 2.059832 4.160429 139.999985
[Rope4_Seg03]
41 139.999924 0.000000 -0.000238 -0.148862 2.413896 4.837960 139.999924
42 139.999924 0.000000 -0.000238 -0.062084 3.051363 6.157604 139.999924
[Rope4_Seg04]
41 139.999985 0.000000 0.000119 -1.769576 9.236412 17.143787 139.999985
42 139.999985 0.000000 0.000119 -2.404012 9.190121 20.874571 139.999985
[Rope4_Seg05]
41 139.999802 -0.000060 -0.000119 2.005636 -5.649655 -7.809050 139.999802
42 139.999802 -0.000060 -0.000119 1.657200 -0.320762 -4.396232 139.999802
[Rope4_Seg06]
41 139.999924 0.000000 0.000060 1.927166 -6.933488 -11.442109 139.999924
42 139.999924 0.000000 0.000060 4.839067 -6.648409 -19.710482 139.999924
[Rope4_Seg07]
41 139.999802 0.000000 0.000000 0.248783 -2.158680 -3.134655 139.999802
42 139.999802 0.000000 0.000000 0.505017 -1.981120 -5.054130 139.999802
[Rope4_Seg08]
41 139.999924 0.000000 0.000119 -1.454415 -1.197547 -1.724350 139.999924
42 139.999924 0.000000 0.000119 -1.382259 -1.095002 -2.730584 139.999924
[Rope4_Seg09]
41 90.185791 0.000060 0.000060 -135.617828 2.228885 0.850567 90.185791
42 90.185791 0.000060 0.000060 -135.617828 2.228885 0.850567 90.185791
[L_rear_hand01]
41 101.696655 -8.392275 -7.654577 -12.874829 -36.868488 107.832764 102.329041
42 101.696655 -8.392275 -7.654577 -12.874829 -36.868488 107.832764 102.329041
[L_rear_hand02]
41 102.726799 -1.568258 5.773216 71.484581 71.816628 158.486160 102.900848
42 102.726799 -1.568258 5.773216 71.484581 71.816628 158.486160 102.900848
[L_rear_hand03]
41 104.552910 9.721220 -10.420293 -177.714203 -24.565960 -106.089035 105.519653
42 104.552910 9.721220 -10.420293 -177.714203 -24.565960 -106.089035 105.519653
